<svg xmlns="http://www.w3.org/2000/svg" viewBox="0 0 75.59 75.81"><defs><style>.cls-1{fill:#d0452e;}.cls-1,.cls-2{fill-rule:evenodd;}.cls-2{fill:#73797c;}</style></defs><title>Asset 1</title><g id="Layer_2" data-name="Layer 2"><g id="Layer_1-2" data-name="Layer 1"><g id="Page-1"><g id="Group-3-Copy-4"><g id="Logo-Colour"><g id="Group-32"><path id="Fill-1" class="cls-1" d="M.09,75.31V64.61s5.3-2.8,15.7-5.1c-3,3-15.7,15.8-15.7,15.8"/><path id="Fill-3" class="cls-1" d="M.69,75.81l16-16s-2.2,9.8-5,16Z"/><path id="Fill-5" class="cls-1" d="M12.59,75.81a72.48,72.48,0,0,0,5.1-17.1l7.9-7.9a66.31,66.31,0,0,1-4.4,25Z"/><path id="Fill-7" class="cls-1" d="M22.09,75.81s4.5-8.5,4.3-25.8c4-4.1,9-9.2,9-9.2s4.2,18.9-2.7,34.7c-5,.3-10.6.3-10.6.3"/><path id="Fill-9" class="cls-1" d="M33.69,75.61s6.6-13.7,2.4-35.4l3.5-3.5h5.7s5.3,22.2-2.7,38.6a50.23,50.23,0,0,1-8.9.3"/><path id="Fill-11" class="cls-1" d="M43.49,75.31s7.6-13.9,2.6-38.6h9.7s4.4,17.9-1.3,35.7c-3,1.6-8.7,2.5-11,2.9"/><path id="Fill-13" class="cls-1" d="M55.59,71.91s5.4-12.5,1-35.3h11.3s1.9,16.5-2.5,27.8a30.26,30.26,0,0,1-9.8,7.5"/><path id="Fill-15" class="cls-1" d="M66.89,62.81s3.4-9.5,1.8-26.1h6.9s.3,14.6-8.7,26.1"/><path id="Fill-17" class="cls-1" d="M.09,63.61v-8.5s9.7-4.9,24.6-4.7c-2.9,2.9-7.8,7.9-7.8,7.9s-10.5,2.3-16.8,5.3"/><path id="Fill-19" class="cls-1" d="M.09,54.11V43.51s11.5-6.4,34.4-3c-4.6,4.6-8.9,9.1-8.9,9.1S10,49.31.09,54.11"/><path id="Fill-21" class="cls-1" d="M.09,42.51a57.11,57.11,0,0,1,.2-8.9c2.8-1.3,16.2-7.3,38.8-2.9V36l-3.8,3.8S16,35.71.09,42.51"/><path id="Fill-23" class="cls-1" d="M.29,32.71a72.78,72.78,0,0,1,3.1-11c2.8-1.5,17.2-5,35.7-1.5v9.6s-21.1-5-38.8,2.9"/><path id="Fill-25" class="cls-1" d="M3.79,20.51a51.22,51.22,0,0,1,6.2-9.6c3.1-1.2,13.2-4.3,29.1-2.8v11.1s-18-4-35.3,1.3"/><path id="Fill-27" class="cls-1" d="M11.29,9.61s8.3-9.9,27.8-9.6v7.3a73.66,73.66,0,0,0-27.8,2.3"/></g><polygon id="Fill-33" class="cls-2" points="46.99 28.8 46.99 6 50.99 6 58.29 25.1 65.59 6 69.49 6 69.49 28.8 66.69 28.8 66.69 9.6 59.59 28.8 56.99 28.8 49.79 9.6 49.79 28.8 46.99 28.8"/></g></g></g></g></g></svg>